G04*
G04 #@! TF.GenerationSoftware,Altium Limited,Altium Designer,24.9.1 (31)*
G04*
G04 Layer_Color=65535*
%FSLAX44Y44*%
%MOMM*%
G71*
G04*
G04 #@! TF.SameCoordinates,7E7E1321-1AF4-471A-A2C5-3CFE501CF5BA*
G04*
G04*
G04 #@! TF.FilePolarity,Positive*
G04*
G01*
G75*
%ADD10C,0.2500*%
%ADD11C,0.6000*%
%ADD12C,0.2000*%
%ADD13C,0.2540*%
D10*
X574652Y760990D02*
G03*
X574652Y760990I-1250J0D01*
G01*
X409840Y827960D02*
G03*
X409840Y827960I-1250J0D01*
G01*
X982040Y797640D02*
G03*
X982040Y797640I-1250J0D01*
G01*
X766480Y908930D02*
G03*
X766480Y908930I-1250J0D01*
G01*
D11*
X789480Y896380D02*
G03*
X789480Y896380I-3000J0D01*
G01*
D12*
X503640Y695740D02*
Y731740D01*
X513640D01*
X503640Y695740D02*
X513640D01*
X583640Y731740D02*
X593640D01*
Y695740D02*
Y731740D01*
X583640Y695740D02*
X593640D01*
X709320Y773940D02*
X728320D01*
X709320Y805940D02*
X728320D01*
X877840Y809090D02*
X879840D01*
X877840Y821590D02*
X879840D01*
X928880Y785520D02*
Y804520D01*
X960880Y785520D02*
Y804520D01*
X783166Y676770D02*
X791634D01*
X783166Y659270D02*
X791634D01*
X780440Y700280D02*
X799440D01*
X780440Y732280D02*
X799440D01*
X796818Y967482D02*
X813542D01*
X796818Y952758D02*
X813542D01*
X733023Y967482D02*
X749748D01*
X733023Y952758D02*
X749748D01*
X674480Y933550D02*
X676480D01*
X674480Y946050D02*
X676480D01*
X511200Y902460D02*
X530200D01*
X511200Y870460D02*
X530200D01*
X369340Y842960D02*
X392090D01*
X349590Y814710D02*
Y831210D01*
X369340Y802960D02*
X392090D01*
Y811210D01*
Y834710D02*
Y842960D01*
X997290Y782640D02*
X1020040D01*
X1039790Y794390D02*
Y810890D01*
X997290Y822640D02*
X1020040D01*
X997290Y814390D02*
Y822640D01*
Y782640D02*
Y790890D01*
X880380Y882550D02*
X882380D01*
X880380Y870050D02*
X882380D01*
X776480Y856380D02*
X808480D01*
X776480Y906380D02*
X808480D01*
Y856380D02*
Y906380D01*
X776480Y856380D02*
Y906380D01*
D13*
X514347Y783840D02*
X511808Y786379D01*
X506729D01*
X504190Y783840D01*
Y781301D01*
X506729Y778762D01*
X511808D01*
X514347Y776222D01*
Y773683D01*
X511808Y771144D01*
X506729D01*
X504190Y773683D01*
X519425Y786379D02*
Y771144D01*
X524503Y776222D01*
X529582Y771144D01*
Y786379D01*
X534660Y771144D02*
X539739D01*
X537199D01*
Y786379D01*
X534660Y783840D01*
X563884Y825502D02*
Y840738D01*
X571502D01*
X574041Y838198D01*
Y833120D01*
X571502Y830581D01*
X563884D01*
X568963D02*
X574041Y825502D01*
X589276D02*
X579119D01*
X589276Y835659D01*
Y838198D01*
X586737Y840738D01*
X581658D01*
X579119Y838198D01*
X459743Y825502D02*
Y840738D01*
X467361D01*
X469900Y838198D01*
Y833120D01*
X467361Y830581D01*
X459743D01*
X464822D02*
X469900Y825502D01*
X474978D02*
X480057D01*
X477518D01*
Y840738D01*
X474978Y838198D01*
X704855Y828038D02*
X702315Y830577D01*
X697237D01*
X694698Y828038D01*
Y817882D01*
X697237Y815342D01*
X702315D01*
X704855Y817882D01*
X709933Y815342D02*
X715011D01*
X712472D01*
Y830577D01*
X709933Y828038D01*
X722629Y815342D02*
X732785Y825499D01*
X737864Y815342D02*
X742942D01*
X740403D01*
Y830577D01*
X737864Y828038D01*
X876304Y833122D02*
Y848357D01*
X883922D01*
X886461Y845818D01*
Y840740D01*
X883922Y838201D01*
X876304D01*
X881383D02*
X886461Y833122D01*
X901696Y848357D02*
X891539D01*
Y840740D01*
X896618Y843279D01*
X899157D01*
X901696Y840740D01*
Y835662D01*
X899157Y833122D01*
X894078D01*
X891539Y835662D01*
X939801Y845818D02*
X937262Y848357D01*
X932183D01*
X929644Y845818D01*
Y835662D01*
X932183Y833122D01*
X937262D01*
X939801Y835662D01*
X944879Y845818D02*
X947418Y848357D01*
X952497D01*
X955036Y845818D01*
Y843279D01*
X952497Y840740D01*
X949958D01*
X952497D01*
X955036Y838201D01*
Y835662D01*
X952497Y833122D01*
X947418D01*
X944879Y835662D01*
X829258Y675638D02*
X826719Y678177D01*
X821640D01*
X819101Y675638D01*
Y665482D01*
X821640Y662943D01*
X826719D01*
X829258Y665482D01*
X834336Y662943D02*
X839415D01*
X836875D01*
Y678177D01*
X834336Y675638D01*
X847032Y662943D02*
X857189Y673099D01*
X872424Y662943D02*
X862267D01*
X872424Y673099D01*
Y675638D01*
X869885Y678177D01*
X864806D01*
X862267Y675638D01*
X877502Y662943D02*
X887659Y673099D01*
X902894Y662943D02*
X892737D01*
X902894Y673099D01*
Y675638D01*
X900355Y678177D01*
X895276D01*
X892737Y675638D01*
X836759Y723898D02*
X834220Y726438D01*
X829142D01*
X826603Y723898D01*
Y713742D01*
X829142Y711202D01*
X834220D01*
X836759Y713742D01*
X841838Y711202D02*
X846916D01*
X844377D01*
Y726438D01*
X841838Y723898D01*
X854534Y711202D02*
X864690Y721359D01*
X879926Y711202D02*
X869769D01*
X879926Y721359D01*
Y723898D01*
X877386Y726438D01*
X872308D01*
X869769Y723898D01*
X885004Y711202D02*
X895161Y721359D01*
X900239Y711202D02*
X905317D01*
X902778D01*
Y726438D01*
X900239Y723898D01*
X786139Y975362D02*
Y990598D01*
X793756D01*
X796295Y988058D01*
Y982980D01*
X793756Y980441D01*
X786139D01*
X791217D02*
X796295Y975362D01*
X801374Y990598D02*
Y977902D01*
X803913Y975362D01*
X808991D01*
X811530Y977902D01*
Y990598D01*
X816609Y975362D02*
X821687D01*
X819148D01*
Y990598D01*
X816609Y988058D01*
X829305D02*
X831844Y990598D01*
X836922D01*
X839461Y988058D01*
Y985519D01*
X836922Y982980D01*
X839461Y980441D01*
Y977902D01*
X836922Y975362D01*
X831844D01*
X829305Y977902D01*
Y980441D01*
X831844Y982980D01*
X829305Y985519D01*
Y988058D01*
X831844Y982980D02*
X836922D01*
X704858Y975362D02*
Y990598D01*
X712475D01*
X715014Y988058D01*
Y982980D01*
X712475Y980441D01*
X704858D01*
X709936D02*
X715014Y975362D01*
X720093Y990598D02*
Y977902D01*
X722632Y975362D01*
X727710D01*
X730250Y977902D01*
Y990598D01*
X735328Y975362D02*
X740406D01*
X737867D01*
Y990598D01*
X735328Y988058D01*
X748024Y975362D02*
X753102D01*
X750563D01*
Y990598D01*
X748024Y988058D01*
X650244Y906783D02*
Y922018D01*
X657862D01*
X660401Y919478D01*
Y914400D01*
X657862Y911861D01*
X650244D01*
X655322D02*
X660401Y906783D01*
X665479Y919478D02*
X668018Y922018D01*
X673097D01*
X675636Y919478D01*
Y916939D01*
X673097Y914400D01*
X670557D01*
X673097D01*
X675636Y911861D01*
Y909322D01*
X673097Y906783D01*
X668018D01*
X665479Y909322D01*
X563881Y906778D02*
X561342Y909317D01*
X556263D01*
X553724Y906778D01*
Y896622D01*
X556263Y894082D01*
X561342D01*
X563881Y896622D01*
X579116Y894082D02*
X568959D01*
X579116Y904239D01*
Y906778D01*
X576577Y909317D01*
X571498D01*
X568959Y906778D01*
X358140Y792477D02*
X353062D01*
X355601D01*
Y779782D01*
X353062Y777243D01*
X350522D01*
X347983Y779782D01*
X363218Y777243D02*
X368297D01*
X365758D01*
Y792477D01*
X363218Y789938D01*
X1000761Y850898D02*
X995683D01*
X998222D01*
Y838202D01*
X995683Y835663D01*
X993143D01*
X990604Y838202D01*
X1015996Y835663D02*
X1005839D01*
X1015996Y845819D01*
Y848358D01*
X1013457Y850898D01*
X1008378D01*
X1005839Y848358D01*
X858524Y891543D02*
Y906777D01*
X866142D01*
X868681Y904238D01*
Y899160D01*
X866142Y896621D01*
X858524D01*
X863603D02*
X868681Y891543D01*
X881377D02*
Y906777D01*
X873759Y899160D01*
X883916D01*
X757682Y934207D02*
Y921511D01*
X760221Y918972D01*
X765300D01*
X767839Y921511D01*
Y934207D01*
X772917Y918972D02*
X777995D01*
X775456D01*
Y934207D01*
X772917Y931668D01*
M02*
