G04*
G04 #@! TF.GenerationSoftware,Altium Limited,Altium Designer,24.9.1 (31)*
G04*
G04 Layer_Color=8421504*
%FSLAX44Y44*%
%MOMM*%
G71*
G04*
G04 #@! TF.SameCoordinates,7E7E1321-1AF4-471A-A2C5-3CFE501CF5BA*
G04*
G04*
G04 #@! TF.FilePolarity,Positive*
G04*
G01*
G75*
%ADD14R,1.2000X2.5000*%
%ADD15R,0.8000X1.0000*%
%ADD16R,1.4000X3.4000*%
%ADD17R,1.2000X1.4500*%
%ADD18R,3.4000X1.4000*%
%ADD19R,1.1057X1.6582*%
%ADD20R,0.7154X0.6725*%
%ADD21R,1.5500X0.6000*%
%ADD22R,1.8000X1.2000*%
G04:AMPARAMS|DCode=23|XSize=0.6mm|YSize=1.45mm|CornerRadius=0.051mm|HoleSize=0mm|Usage=FLASHONLY|Rotation=90.000|XOffset=0mm|YOffset=0mm|HoleType=Round|Shape=RoundedRectangle|*
%AMROUNDEDRECTD23*
21,1,0.6000,1.3480,0,0,90.0*
21,1,0.4980,1.4500,0,0,90.0*
1,1,0.1020,0.6740,0.2490*
1,1,0.1020,0.6740,-0.2490*
1,1,0.1020,-0.6740,-0.2490*
1,1,0.1020,-0.6740,0.2490*
%
%ADD23ROUNDEDRECTD23*%
D14*
X548640Y686240D02*
D03*
Y741240D02*
D03*
X573640D02*
D03*
Y686240D02*
D03*
X523640D02*
D03*
Y741240D02*
D03*
D15*
X569200Y810260D02*
D03*
X584200D02*
D03*
X462400D02*
D03*
X477400D02*
D03*
D16*
X739320Y789940D02*
D03*
X698320D02*
D03*
X810440Y716280D02*
D03*
X769440D02*
D03*
X500200Y886460D02*
D03*
X541200D02*
D03*
D17*
X888840Y815340D02*
D03*
X868840D02*
D03*
X685480Y939800D02*
D03*
X665480D02*
D03*
X871380Y876300D02*
D03*
X891380D02*
D03*
D18*
X944880Y774520D02*
D03*
Y815520D02*
D03*
D19*
X800162Y668020D02*
D03*
X774638D02*
D03*
D20*
X809966Y960120D02*
D03*
X800394D02*
D03*
X746171D02*
D03*
X736600D02*
D03*
D21*
X395340Y817960D02*
D03*
Y827960D02*
D03*
X994040Y807640D02*
D03*
Y797640D02*
D03*
D22*
X356590Y804960D02*
D03*
Y840960D02*
D03*
X1032790Y820640D02*
D03*
Y784640D02*
D03*
D23*
X819730Y862330D02*
D03*
Y875030D02*
D03*
Y887730D02*
D03*
Y900430D02*
D03*
X765230Y862330D02*
D03*
Y875030D02*
D03*
Y887730D02*
D03*
Y900430D02*
D03*
M02*
