G04*
G04 #@! TF.GenerationSoftware,Altium Limited,Altium Designer,24.9.1 (31)*
G04*
G04 Layer_Color=16711935*
%FSLAX44Y44*%
%MOMM*%
G71*
G04*
G04 #@! TF.SameCoordinates,B653029B-541F-4617-83FB-ACABD9EDAD60*
G04*
G04*
G04 #@! TF.FilePolarity,Positive*
G04*
G01*
G75*
%ADD12C,0.2000*%
G36*
X543641Y717486D02*
X543807D01*
X543992Y717468D01*
X544215Y717449D01*
X544677Y717375D01*
X545159Y717301D01*
X545640Y717172D01*
X546103Y717005D01*
X546122D01*
X546159Y716986D01*
X546214Y716949D01*
X546288Y716912D01*
X546511Y716801D01*
X546770Y716635D01*
X547066Y716412D01*
X547381Y716153D01*
X547677Y715838D01*
X547955Y715487D01*
Y715468D01*
X547992Y715431D01*
X548010Y715376D01*
X548066Y715301D01*
X548103Y715209D01*
X548159Y715098D01*
X548288Y714820D01*
X548418Y714468D01*
X548529Y714079D01*
X548603Y713635D01*
X548640Y713172D01*
X547048Y713024D01*
Y713042D01*
Y713061D01*
X547029Y713117D01*
Y713191D01*
X546992Y713357D01*
X546936Y713598D01*
X546862Y713839D01*
X546788Y714116D01*
X546659Y714376D01*
X546529Y714616D01*
X546511Y714635D01*
X546455Y714709D01*
X546362Y714838D01*
X546214Y714968D01*
X546029Y715135D01*
X545826Y715301D01*
X545548Y715468D01*
X545252Y715616D01*
X545233D01*
X545214Y715635D01*
X545159Y715653D01*
X545103Y715672D01*
X544918Y715727D01*
X544677Y715801D01*
X544381Y715875D01*
X544048Y715931D01*
X543678Y715968D01*
X543270Y715986D01*
X543103D01*
X542918Y715968D01*
X542696Y715949D01*
X542437Y715912D01*
X542141Y715875D01*
X541844Y715801D01*
X541567Y715709D01*
X541530Y715690D01*
X541437Y715653D01*
X541307Y715579D01*
X541141Y715505D01*
X540974Y715376D01*
X540789Y715246D01*
X540604Y715098D01*
X540456Y714913D01*
X540437Y714894D01*
X540400Y714820D01*
X540345Y714727D01*
X540271Y714579D01*
X540196Y714431D01*
X540141Y714246D01*
X540104Y714042D01*
X540085Y713820D01*
Y713802D01*
Y713709D01*
X540104Y713598D01*
X540122Y713450D01*
X540178Y713302D01*
X540233Y713117D01*
X540326Y712931D01*
X540456Y712765D01*
X540474Y712746D01*
X540530Y712691D01*
X540604Y712617D01*
X540733Y712505D01*
X540882Y712394D01*
X541085Y712265D01*
X541326Y712135D01*
X541604Y712024D01*
X541622Y712005D01*
X541715Y711987D01*
X541863Y711931D01*
X541955Y711913D01*
X542085Y711876D01*
X542215Y711820D01*
X542381Y711783D01*
X542567Y711728D01*
X542789Y711672D01*
X543011Y711617D01*
X543270Y711543D01*
X543567Y711469D01*
X543881Y711394D01*
X543900D01*
X543955Y711376D01*
X544048Y711357D01*
X544159Y711320D01*
X544307Y711283D01*
X544474Y711246D01*
X544844Y711135D01*
X545252Y711006D01*
X545677Y710876D01*
X546048Y710746D01*
X546214Y710672D01*
X546362Y710598D01*
X546381D01*
X546399Y710580D01*
X546511Y710506D01*
X546677Y710413D01*
X546862Y710265D01*
X547085Y710098D01*
X547307Y709895D01*
X547529Y709654D01*
X547714Y709395D01*
X547733Y709358D01*
X547788Y709265D01*
X547862Y709117D01*
X547936Y708932D01*
X548010Y708691D01*
X548084Y708413D01*
X548140Y708117D01*
X548159Y707802D01*
Y707784D01*
Y707765D01*
Y707710D01*
Y707635D01*
X548121Y707450D01*
X548084Y707210D01*
X548029Y706932D01*
X547936Y706617D01*
X547807Y706302D01*
X547622Y705988D01*
Y705969D01*
X547603Y705950D01*
X547510Y705839D01*
X547381Y705691D01*
X547214Y705506D01*
X546992Y705303D01*
X546714Y705080D01*
X546381Y704877D01*
X546011Y704691D01*
X545992D01*
X545955Y704673D01*
X545900Y704654D01*
X545826Y704617D01*
X545733Y704580D01*
X545603Y704543D01*
X545326Y704469D01*
X544974Y704395D01*
X544566Y704321D01*
X544141Y704266D01*
X543659Y704247D01*
X543418D01*
X543289Y704266D01*
X543159D01*
X542807Y704303D01*
X542418Y704358D01*
X542011Y704451D01*
X541567Y704562D01*
X541159Y704710D01*
X541141D01*
X541104Y704728D01*
X541048Y704765D01*
X540974Y704802D01*
X540789Y704895D01*
X540548Y705062D01*
X540271Y705247D01*
X539993Y705488D01*
X539734Y705765D01*
X539493Y706080D01*
Y706099D01*
X539474Y706117D01*
X539437Y706173D01*
X539400Y706228D01*
X539308Y706413D01*
X539197Y706654D01*
X539067Y706950D01*
X538974Y707302D01*
X538882Y707673D01*
X538845Y708080D01*
X540474Y708210D01*
Y708191D01*
Y708154D01*
X540493Y708099D01*
X540511Y708006D01*
X540567Y707802D01*
X540641Y707524D01*
X540752Y707228D01*
X540919Y706932D01*
X541122Y706654D01*
X541381Y706395D01*
X541418Y706376D01*
X541511Y706302D01*
X541696Y706191D01*
X541937Y706080D01*
X542252Y705969D01*
X542622Y705858D01*
X543085Y705784D01*
X543604Y705765D01*
X543863D01*
X543974Y705784D01*
X544122Y705802D01*
X544455Y705839D01*
X544826Y705913D01*
X545196Y706006D01*
X545548Y706154D01*
X545696Y706247D01*
X545844Y706339D01*
X545881Y706358D01*
X545955Y706432D01*
X546066Y706562D01*
X546177Y706710D01*
X546307Y706913D01*
X546418Y707136D01*
X546492Y707395D01*
X546529Y707691D01*
Y707728D01*
Y707802D01*
X546511Y707932D01*
X546474Y708080D01*
X546418Y708265D01*
X546325Y708450D01*
X546214Y708635D01*
X546048Y708821D01*
X546029Y708839D01*
X545937Y708895D01*
X545863Y708950D01*
X545788Y708987D01*
X545677Y709043D01*
X545548Y709117D01*
X545381Y709172D01*
X545196Y709247D01*
X544992Y709321D01*
X544752Y709413D01*
X544492Y709487D01*
X544196Y709580D01*
X543863Y709654D01*
X543492Y709746D01*
X543474D01*
X543400Y709765D01*
X543289Y709783D01*
X543159Y709820D01*
X542992Y709857D01*
X542789Y709913D01*
X542585Y709969D01*
X542363Y710024D01*
X541881Y710154D01*
X541418Y710283D01*
X541196Y710358D01*
X540993Y710432D01*
X540807Y710487D01*
X540659Y710561D01*
X540641D01*
X540604Y710580D01*
X540548Y710617D01*
X540474Y710654D01*
X540271Y710765D01*
X540030Y710913D01*
X539752Y711117D01*
X539474Y711339D01*
X539215Y711598D01*
X538993Y711876D01*
X538974Y711913D01*
X538900Y712005D01*
X538826Y712172D01*
X538715Y712394D01*
X538623Y712654D01*
X538530Y712968D01*
X538474Y713320D01*
X538456Y713690D01*
Y713709D01*
Y713727D01*
Y713783D01*
Y713857D01*
X538493Y714061D01*
X538530Y714320D01*
X538604Y714616D01*
X538697Y714931D01*
X538845Y715264D01*
X539048Y715616D01*
Y715635D01*
X539067Y715653D01*
X539160Y715764D01*
X539289Y715931D01*
X539474Y716116D01*
X539715Y716338D01*
X540011Y716579D01*
X540345Y716801D01*
X540733Y717005D01*
X540752D01*
X540789Y717023D01*
X540844Y717042D01*
X540919Y717079D01*
X541030Y717116D01*
X541159Y717172D01*
X541456Y717246D01*
X541807Y717338D01*
X542233Y717431D01*
X542696Y717486D01*
X543196Y717505D01*
X543492D01*
X543641Y717486D01*
D02*
G37*
G36*
X537308Y704469D02*
X535549D01*
X533642Y712876D01*
Y712894D01*
X533623Y712931D01*
X533605Y713005D01*
X533586Y713098D01*
X533568Y713228D01*
X533531Y713357D01*
X533493Y713524D01*
X533456Y713709D01*
X533364Y714098D01*
X533271Y714542D01*
X533179Y715024D01*
X533086Y715505D01*
Y715487D01*
X533068Y715413D01*
X533031Y715320D01*
X533012Y715172D01*
X532975Y715024D01*
X532919Y714838D01*
X532827Y714431D01*
X532716Y714024D01*
X532679Y713820D01*
X532623Y713635D01*
X532586Y713468D01*
X532549Y713320D01*
X532512Y713209D01*
X532494Y713135D01*
X530068Y704469D01*
X528013D01*
X526198Y710968D01*
Y710987D01*
X526161Y711080D01*
X526124Y711209D01*
X526087Y711376D01*
X526031Y711598D01*
X525957Y711839D01*
X525883Y712117D01*
X525809Y712431D01*
X525716Y712783D01*
X525642Y713135D01*
X525476Y713894D01*
X525309Y714690D01*
X525179Y715505D01*
Y715487D01*
X525161Y715450D01*
Y715376D01*
X525124Y715283D01*
X525105Y715172D01*
X525068Y715042D01*
X525050Y714875D01*
X524994Y714690D01*
X524902Y714283D01*
X524791Y713802D01*
X524679Y713283D01*
X524531Y712709D01*
X522532Y704469D01*
X520810D01*
X524328Y717283D01*
X525994D01*
X528679Y707524D01*
Y707506D01*
X528698Y707469D01*
X528716Y707413D01*
X528735Y707321D01*
X528790Y707117D01*
X528846Y706876D01*
X528920Y706617D01*
X528994Y706376D01*
X529049Y706173D01*
X529068Y706080D01*
X529086Y706025D01*
Y706043D01*
X529105Y706062D01*
X529123Y706173D01*
X529160Y706339D01*
X529216Y706543D01*
X529272Y706765D01*
X529346Y707025D01*
X529401Y707284D01*
X529475Y707524D01*
X532179Y717283D01*
X533956D01*
X537308Y704469D01*
D02*
G37*
G36*
X515514Y707265D02*
X515532Y707284D01*
X515625Y707358D01*
X515736Y707469D01*
X515921Y707598D01*
X516125Y707765D01*
X516384Y707950D01*
X516680Y708154D01*
X517014Y708358D01*
X517032D01*
X517051Y708376D01*
X517162Y708450D01*
X517347Y708543D01*
X517569Y708654D01*
X517828Y708784D01*
X518106Y708913D01*
X518384Y709043D01*
X518662Y709154D01*
Y707635D01*
X518643D01*
X518606Y707598D01*
X518532Y707580D01*
X518439Y707524D01*
X518328Y707469D01*
X518199Y707395D01*
X517884Y707210D01*
X517514Y707006D01*
X517143Y706747D01*
X516754Y706451D01*
X516366Y706136D01*
X516347Y706117D01*
X516329Y706099D01*
X516273Y706043D01*
X516199Y705988D01*
X516032Y705802D01*
X515810Y705580D01*
X515588Y705321D01*
X515347Y705025D01*
X515144Y704728D01*
X514958Y704414D01*
X513940D01*
Y717283D01*
X515514D01*
Y707265D01*
D02*
G37*
G36*
X790571Y674631D02*
X790654Y674621D01*
X790756Y674612D01*
X790858Y674603D01*
X790978Y674575D01*
X791228Y674520D01*
X791505Y674436D01*
X791644Y674381D01*
X791773Y674316D01*
X791902Y674233D01*
X792032Y674150D01*
X792041Y674140D01*
X792060Y674131D01*
X792097Y674103D01*
X792143Y674057D01*
X792189Y674011D01*
X792254Y673946D01*
X792318Y673872D01*
X792393Y673798D01*
X792467Y673706D01*
X792540Y673595D01*
X792624Y673484D01*
X792698Y673364D01*
X792762Y673225D01*
X792836Y673086D01*
X792892Y672939D01*
X792947Y672772D01*
X792115Y672578D01*
Y672587D01*
X792106Y672606D01*
X792087Y672643D01*
X792069Y672689D01*
X792050Y672744D01*
X792023Y672818D01*
X791949Y672966D01*
X791856Y673133D01*
X791745Y673299D01*
X791607Y673456D01*
X791459Y673595D01*
X791440Y673614D01*
X791385Y673650D01*
X791292Y673697D01*
X791172Y673761D01*
X791015Y673817D01*
X790839Y673872D01*
X790627Y673909D01*
X790395Y673919D01*
X790322D01*
X790275Y673909D01*
X790210D01*
X790137Y673900D01*
X789961Y673872D01*
X789767Y673835D01*
X789563Y673771D01*
X789351Y673678D01*
X789156Y673558D01*
X789147D01*
X789138Y673540D01*
X789073Y673493D01*
X788990Y673419D01*
X788888Y673308D01*
X788768Y673170D01*
X788657Y673012D01*
X788556Y672818D01*
X788463Y672606D01*
Y672596D01*
X788454Y672578D01*
X788445Y672550D01*
X788435Y672504D01*
X788417Y672449D01*
X788398Y672384D01*
X788371Y672227D01*
X788334Y672042D01*
X788297Y671838D01*
X788278Y671616D01*
X788269Y671376D01*
Y671367D01*
Y671339D01*
Y671293D01*
Y671237D01*
X788278Y671173D01*
Y671089D01*
X788288Y670997D01*
X788297Y670895D01*
X788324Y670673D01*
X788371Y670433D01*
X788426Y670193D01*
X788500Y669952D01*
Y669943D01*
X788509Y669924D01*
X788528Y669897D01*
X788546Y669850D01*
X788602Y669740D01*
X788685Y669610D01*
X788787Y669462D01*
X788916Y669305D01*
X789064Y669166D01*
X789240Y669037D01*
X789249D01*
X789268Y669028D01*
X789295Y669009D01*
X789332Y668991D01*
X789378Y668972D01*
X789434Y668944D01*
X789563Y668889D01*
X789730Y668833D01*
X789915Y668787D01*
X790118Y668750D01*
X790331Y668741D01*
X790395D01*
X790451Y668750D01*
X790516D01*
X790580Y668760D01*
X790747Y668796D01*
X790941Y668843D01*
X791135Y668917D01*
X791339Y669018D01*
X791440Y669074D01*
X791533Y669148D01*
X791542Y669157D01*
X791551Y669166D01*
X791579Y669194D01*
X791616Y669222D01*
X791653Y669268D01*
X791699Y669324D01*
X791755Y669379D01*
X791801Y669453D01*
X791856Y669536D01*
X791921Y669629D01*
X791976Y669721D01*
X792032Y669832D01*
X792078Y669952D01*
X792124Y670082D01*
X792171Y670220D01*
X792208Y670368D01*
X793058Y670156D01*
Y670146D01*
X793049Y670109D01*
X793030Y670054D01*
X793003Y669980D01*
X792975Y669897D01*
X792938Y669795D01*
X792892Y669684D01*
X792836Y669564D01*
X792707Y669305D01*
X792540Y669046D01*
X792439Y668917D01*
X792337Y668787D01*
X792226Y668676D01*
X792097Y668565D01*
X792087Y668556D01*
X792069Y668538D01*
X792023Y668519D01*
X791976Y668482D01*
X791902Y668436D01*
X791829Y668390D01*
X791727Y668344D01*
X791625Y668297D01*
X791505Y668242D01*
X791376Y668195D01*
X791237Y668149D01*
X791089Y668103D01*
X790932Y668066D01*
X790765Y668048D01*
X790590Y668029D01*
X790405Y668020D01*
X790303D01*
X790229Y668029D01*
X790146D01*
X790044Y668038D01*
X789933Y668057D01*
X789804Y668075D01*
X789536Y668122D01*
X789258Y668195D01*
X788981Y668297D01*
X788851Y668362D01*
X788722Y668436D01*
X788713Y668445D01*
X788694Y668454D01*
X788657Y668482D01*
X788620Y668519D01*
X788565Y668556D01*
X788500Y668612D01*
X788426Y668676D01*
X788352Y668750D01*
X788278Y668833D01*
X788195Y668917D01*
X788029Y669129D01*
X787871Y669379D01*
X787733Y669656D01*
Y669666D01*
X787714Y669693D01*
X787705Y669740D01*
X787677Y669795D01*
X787659Y669869D01*
X787631Y669961D01*
X787594Y670063D01*
X787566Y670174D01*
X787539Y670294D01*
X787502Y670433D01*
X787455Y670720D01*
X787418Y671043D01*
X787400Y671376D01*
Y671385D01*
Y671422D01*
Y671478D01*
X787409Y671542D01*
Y671635D01*
X787418Y671727D01*
X787428Y671848D01*
X787446Y671968D01*
X787492Y672236D01*
X787557Y672532D01*
X787650Y672828D01*
X787779Y673114D01*
X787788Y673123D01*
X787797Y673151D01*
X787816Y673188D01*
X787853Y673234D01*
X787890Y673299D01*
X787936Y673373D01*
X788056Y673540D01*
X788214Y673724D01*
X788398Y673909D01*
X788611Y674094D01*
X788861Y674251D01*
X788870Y674261D01*
X788898Y674270D01*
X788935Y674288D01*
X788981Y674316D01*
X789055Y674344D01*
X789129Y674372D01*
X789221Y674409D01*
X789323Y674446D01*
X789434Y674482D01*
X789554Y674520D01*
X789813Y674575D01*
X790109Y674621D01*
X790414Y674640D01*
X790506D01*
X790571Y674631D01*
D02*
G37*
G36*
X810976Y674547D02*
X811050Y674538D01*
X811143Y674529D01*
X811244Y674510D01*
X811346Y674492D01*
X811586Y674427D01*
X811827Y674335D01*
X811947Y674279D01*
X812067Y674214D01*
X812178Y674131D01*
X812280Y674039D01*
X812289Y674029D01*
X812308Y674020D01*
X812326Y673983D01*
X812363Y673946D01*
X812409Y673900D01*
X812455Y673835D01*
X812502Y673771D01*
X812557Y673687D01*
X812650Y673512D01*
X812742Y673290D01*
X812779Y673179D01*
X812797Y673049D01*
X812816Y672920D01*
X812825Y672781D01*
Y672763D01*
Y672717D01*
X812816Y672643D01*
X812807Y672541D01*
X812788Y672430D01*
X812751Y672301D01*
X812714Y672162D01*
X812659Y672023D01*
X812650Y672005D01*
X812631Y671958D01*
X812594Y671885D01*
X812539Y671783D01*
X812465Y671672D01*
X812372Y671533D01*
X812261Y671395D01*
X812132Y671237D01*
X812113Y671219D01*
X812067Y671163D01*
X812021Y671117D01*
X811975Y671071D01*
X811919Y671015D01*
X811845Y670941D01*
X811771Y670867D01*
X811679Y670784D01*
X811586Y670692D01*
X811475Y670590D01*
X811355Y670488D01*
X811226Y670368D01*
X811078Y670248D01*
X810930Y670119D01*
X810921Y670109D01*
X810902Y670091D01*
X810865Y670063D01*
X810819Y670026D01*
X810763Y669971D01*
X810699Y669915D01*
X810551Y669795D01*
X810394Y669656D01*
X810246Y669518D01*
X810116Y669398D01*
X810061Y669351D01*
X810015Y669305D01*
X810005Y669296D01*
X809978Y669268D01*
X809941Y669231D01*
X809894Y669176D01*
X809848Y669111D01*
X809793Y669046D01*
X809682Y668889D01*
X812834D01*
Y668131D01*
X808591D01*
Y668140D01*
Y668177D01*
Y668232D01*
X808600Y668307D01*
X808609Y668390D01*
X808628Y668482D01*
X808646Y668575D01*
X808683Y668676D01*
Y668686D01*
X808692Y668695D01*
X808711Y668750D01*
X808748Y668833D01*
X808803Y668944D01*
X808877Y669074D01*
X808970Y669222D01*
X809072Y669370D01*
X809201Y669527D01*
Y669536D01*
X809220Y669545D01*
X809266Y669601D01*
X809349Y669684D01*
X809469Y669804D01*
X809608Y669943D01*
X809783Y670109D01*
X809996Y670294D01*
X810227Y670488D01*
X810237Y670498D01*
X810274Y670525D01*
X810329Y670572D01*
X810394Y670627D01*
X810477Y670701D01*
X810579Y670784D01*
X810680Y670877D01*
X810800Y670978D01*
X811032Y671200D01*
X811263Y671422D01*
X811374Y671533D01*
X811475Y671644D01*
X811568Y671746D01*
X811642Y671848D01*
Y671857D01*
X811660Y671866D01*
X811679Y671894D01*
X811697Y671931D01*
X811762Y672032D01*
X811836Y672153D01*
X811901Y672301D01*
X811965Y672458D01*
X812002Y672633D01*
X812021Y672800D01*
Y672809D01*
Y672818D01*
X812012Y672874D01*
X812002Y672966D01*
X811975Y673068D01*
X811938Y673197D01*
X811873Y673327D01*
X811790Y673456D01*
X811679Y673586D01*
X811660Y673604D01*
X811614Y673641D01*
X811549Y673687D01*
X811448Y673752D01*
X811318Y673808D01*
X811170Y673863D01*
X810995Y673900D01*
X810800Y673909D01*
X810745D01*
X810708Y673900D01*
X810597Y673891D01*
X810468Y673863D01*
X810329Y673826D01*
X810172Y673761D01*
X810024Y673678D01*
X809885Y673567D01*
X809867Y673549D01*
X809830Y673503D01*
X809774Y673428D01*
X809719Y673318D01*
X809654Y673188D01*
X809599Y673022D01*
X809562Y672837D01*
X809543Y672624D01*
X808739Y672707D01*
Y672717D01*
X808748Y672744D01*
Y672791D01*
X808757Y672855D01*
X808776Y672929D01*
X808794Y673012D01*
X808822Y673114D01*
X808850Y673216D01*
X808924Y673438D01*
X809035Y673660D01*
X809099Y673771D01*
X809183Y673882D01*
X809266Y673983D01*
X809358Y674076D01*
X809367Y674085D01*
X809386Y674094D01*
X809414Y674122D01*
X809460Y674150D01*
X809515Y674187D01*
X809580Y674224D01*
X809654Y674270D01*
X809746Y674316D01*
X809848Y674362D01*
X809959Y674409D01*
X810079Y674446D01*
X810209Y674482D01*
X810348Y674510D01*
X810495Y674538D01*
X810653Y674547D01*
X810819Y674557D01*
X810911D01*
X810976Y674547D01*
D02*
G37*
G36*
X803515D02*
X803589Y674538D01*
X803681Y674529D01*
X803783Y674510D01*
X803885Y674492D01*
X804125Y674427D01*
X804365Y674335D01*
X804486Y674279D01*
X804606Y674214D01*
X804717Y674131D01*
X804819Y674039D01*
X804828Y674029D01*
X804846Y674020D01*
X804865Y673983D01*
X804902Y673946D01*
X804948Y673900D01*
X804994Y673835D01*
X805041Y673771D01*
X805096Y673687D01*
X805188Y673512D01*
X805281Y673290D01*
X805318Y673179D01*
X805336Y673049D01*
X805355Y672920D01*
X805364Y672781D01*
Y672763D01*
Y672717D01*
X805355Y672643D01*
X805346Y672541D01*
X805327Y672430D01*
X805290Y672301D01*
X805253Y672162D01*
X805198Y672023D01*
X805188Y672005D01*
X805170Y671958D01*
X805133Y671885D01*
X805078Y671783D01*
X805004Y671672D01*
X804911Y671533D01*
X804800Y671395D01*
X804671Y671237D01*
X804652Y671219D01*
X804606Y671163D01*
X804560Y671117D01*
X804513Y671071D01*
X804458Y671015D01*
X804384Y670941D01*
X804310Y670867D01*
X804218Y670784D01*
X804125Y670692D01*
X804014Y670590D01*
X803894Y670488D01*
X803765Y670368D01*
X803617Y670248D01*
X803469Y670119D01*
X803459Y670109D01*
X803441Y670091D01*
X803404Y670063D01*
X803358Y670026D01*
X803302Y669971D01*
X803238Y669915D01*
X803090Y669795D01*
X802933Y669656D01*
X802785Y669518D01*
X802655Y669398D01*
X802600Y669351D01*
X802553Y669305D01*
X802544Y669296D01*
X802516Y669268D01*
X802479Y669231D01*
X802433Y669176D01*
X802387Y669111D01*
X802331Y669046D01*
X802221Y668889D01*
X805373D01*
Y668131D01*
X801130D01*
Y668140D01*
Y668177D01*
Y668232D01*
X801139Y668307D01*
X801148Y668390D01*
X801167Y668482D01*
X801185Y668575D01*
X801222Y668676D01*
Y668686D01*
X801231Y668695D01*
X801250Y668750D01*
X801287Y668833D01*
X801342Y668944D01*
X801416Y669074D01*
X801509Y669222D01*
X801610Y669370D01*
X801740Y669527D01*
Y669536D01*
X801758Y669545D01*
X801805Y669601D01*
X801888Y669684D01*
X802008Y669804D01*
X802147Y669943D01*
X802322Y670109D01*
X802535Y670294D01*
X802766Y670488D01*
X802775Y670498D01*
X802812Y670525D01*
X802868Y670572D01*
X802933Y670627D01*
X803016Y670701D01*
X803117Y670784D01*
X803219Y670877D01*
X803339Y670978D01*
X803570Y671200D01*
X803802Y671422D01*
X803913Y671533D01*
X804014Y671644D01*
X804107Y671746D01*
X804181Y671848D01*
Y671857D01*
X804199Y671866D01*
X804218Y671894D01*
X804236Y671931D01*
X804301Y672032D01*
X804375Y672153D01*
X804439Y672301D01*
X804504Y672458D01*
X804541Y672633D01*
X804560Y672800D01*
Y672809D01*
Y672818D01*
X804550Y672874D01*
X804541Y672966D01*
X804513Y673068D01*
X804476Y673197D01*
X804412Y673327D01*
X804329Y673456D01*
X804218Y673586D01*
X804199Y673604D01*
X804153Y673641D01*
X804088Y673687D01*
X803987Y673752D01*
X803857Y673808D01*
X803709Y673863D01*
X803533Y673900D01*
X803339Y673909D01*
X803284D01*
X803247Y673900D01*
X803136Y673891D01*
X803006Y673863D01*
X802868Y673826D01*
X802711Y673761D01*
X802563Y673678D01*
X802424Y673567D01*
X802405Y673549D01*
X802368Y673503D01*
X802313Y673428D01*
X802258Y673318D01*
X802193Y673188D01*
X802137Y673022D01*
X802100Y672837D01*
X802082Y672624D01*
X801277Y672707D01*
Y672717D01*
X801287Y672744D01*
Y672791D01*
X801296Y672855D01*
X801314Y672929D01*
X801333Y673012D01*
X801361Y673114D01*
X801388Y673216D01*
X801462Y673438D01*
X801573Y673660D01*
X801638Y673771D01*
X801721Y673882D01*
X801805Y673983D01*
X801897Y674076D01*
X801906Y674085D01*
X801925Y674094D01*
X801952Y674122D01*
X801999Y674150D01*
X802054Y674187D01*
X802119Y674224D01*
X802193Y674270D01*
X802285Y674316D01*
X802387Y674362D01*
X802498Y674409D01*
X802618Y674446D01*
X802748Y674482D01*
X802886Y674510D01*
X803034Y674538D01*
X803191Y674547D01*
X803358Y674557D01*
X803450D01*
X803515Y674547D01*
D02*
G37*
G36*
X796738Y668131D02*
X795952D01*
Y673133D01*
X795943Y673123D01*
X795897Y673086D01*
X795841Y673031D01*
X795749Y672966D01*
X795647Y672883D01*
X795518Y672791D01*
X795370Y672689D01*
X795203Y672587D01*
X795194D01*
X795185Y672578D01*
X795129Y672541D01*
X795037Y672495D01*
X794926Y672439D01*
X794796Y672375D01*
X794658Y672310D01*
X794519Y672245D01*
X794380Y672190D01*
Y672948D01*
X794389D01*
X794408Y672966D01*
X794445Y672975D01*
X794491Y673003D01*
X794547Y673031D01*
X794611Y673068D01*
X794769Y673160D01*
X794954Y673262D01*
X795138Y673392D01*
X795333Y673540D01*
X795527Y673697D01*
X795536Y673706D01*
X795545Y673715D01*
X795573Y673743D01*
X795610Y673771D01*
X795693Y673863D01*
X795804Y673974D01*
X795915Y674103D01*
X796035Y674251D01*
X796137Y674399D01*
X796229Y674557D01*
X796738D01*
Y668131D01*
D02*
G37*
G36*
X806473Y668020D02*
X805845D01*
X807703Y674640D01*
X808332D01*
X806473Y668020D01*
D02*
G37*
G36*
X799012D02*
X798384D01*
X800242Y674640D01*
X800871D01*
X799012Y668020D01*
D02*
G37*
G36*
X816663Y962931D02*
Y962921D01*
Y962884D01*
Y962838D01*
Y962773D01*
X816654Y962690D01*
Y962598D01*
X816644Y962487D01*
X816635Y962376D01*
X816607Y962126D01*
X816571Y961867D01*
X816515Y961618D01*
X816478Y961497D01*
X816441Y961386D01*
Y961377D01*
X816432Y961359D01*
X816413Y961331D01*
X816395Y961294D01*
X816339Y961192D01*
X816256Y961063D01*
X816145Y960915D01*
X816016Y960767D01*
X815849Y960610D01*
X815646Y960471D01*
X815637D01*
X815618Y960453D01*
X815590Y960443D01*
X815544Y960416D01*
X815489Y960388D01*
X815415Y960360D01*
X815341Y960332D01*
X815248Y960295D01*
X815147Y960259D01*
X815036Y960231D01*
X814915Y960203D01*
X814777Y960175D01*
X814638Y960157D01*
X814490Y960138D01*
X814157Y960120D01*
X814074D01*
X814009Y960129D01*
X813935D01*
X813843Y960138D01*
X813741Y960148D01*
X813640Y960157D01*
X813409Y960194D01*
X813159Y960249D01*
X812918Y960323D01*
X812687Y960425D01*
X812678D01*
X812660Y960443D01*
X812632Y960462D01*
X812595Y960480D01*
X812493Y960554D01*
X812373Y960656D01*
X812234Y960786D01*
X812105Y960934D01*
X811975Y961118D01*
X811874Y961322D01*
Y961331D01*
X811864Y961349D01*
X811855Y961386D01*
X811837Y961433D01*
X811818Y961488D01*
X811800Y961562D01*
X811772Y961645D01*
X811753Y961747D01*
X811735Y961858D01*
X811707Y961978D01*
X811689Y962108D01*
X811670Y962246D01*
X811652Y962403D01*
X811643Y962570D01*
X811633Y962746D01*
Y962931D01*
Y966629D01*
X812484D01*
Y962931D01*
Y962921D01*
Y962894D01*
Y962847D01*
Y962792D01*
X812493Y962727D01*
Y962644D01*
X812502Y962468D01*
X812521Y962265D01*
X812549Y962061D01*
X812586Y961867D01*
X812604Y961784D01*
X812632Y961701D01*
X812641Y961682D01*
X812660Y961636D01*
X812706Y961571D01*
X812761Y961479D01*
X812826Y961386D01*
X812918Y961285D01*
X813029Y961183D01*
X813159Y961100D01*
X813177Y961091D01*
X813223Y961063D01*
X813307Y961035D01*
X813418Y960998D01*
X813547Y960952D01*
X813714Y960924D01*
X813889Y960897D01*
X814083Y960887D01*
X814176D01*
X814231Y960897D01*
X814314D01*
X814398Y960906D01*
X814601Y960943D01*
X814823Y960989D01*
X815036Y961063D01*
X815239Y961165D01*
X815331Y961229D01*
X815415Y961303D01*
X815424Y961313D01*
X815433Y961322D01*
X815452Y961349D01*
X815480Y961386D01*
X815507Y961442D01*
X815544Y961497D01*
X815581Y961581D01*
X815618Y961664D01*
X815655Y961766D01*
X815683Y961886D01*
X815720Y962025D01*
X815748Y962172D01*
X815775Y962339D01*
X815794Y962514D01*
X815812Y962718D01*
Y962931D01*
Y966629D01*
X816663D01*
Y962931D01*
D02*
G37*
G36*
X820713Y960231D02*
X819927D01*
Y965233D01*
X819917Y965223D01*
X819871Y965186D01*
X819816Y965131D01*
X819723Y965066D01*
X819622Y964983D01*
X819492Y964891D01*
X819344Y964789D01*
X819178Y964687D01*
X819168D01*
X819159Y964678D01*
X819104Y964641D01*
X819011Y964595D01*
X818900Y964539D01*
X818771Y964475D01*
X818632Y964410D01*
X818493Y964345D01*
X818355Y964290D01*
Y965048D01*
X818364D01*
X818383Y965066D01*
X818420Y965076D01*
X818466Y965103D01*
X818521Y965131D01*
X818586Y965168D01*
X818743Y965260D01*
X818928Y965362D01*
X819113Y965492D01*
X819307Y965639D01*
X819501Y965797D01*
X819511Y965806D01*
X819520Y965815D01*
X819548Y965843D01*
X819585Y965871D01*
X819668Y965963D01*
X819779Y966074D01*
X819890Y966204D01*
X820010Y966351D01*
X820111Y966499D01*
X820204Y966656D01*
X820713D01*
Y960231D01*
D02*
G37*
G36*
X808222Y966619D02*
X808305D01*
X808499Y966610D01*
X808702Y966582D01*
X808924Y966555D01*
X809128Y966509D01*
X809229Y966481D01*
X809313Y966453D01*
X809322D01*
X809331Y966444D01*
X809387Y966416D01*
X809470Y966379D01*
X809572Y966314D01*
X809682Y966231D01*
X809803Y966120D01*
X809914Y965991D01*
X810025Y965843D01*
Y965834D01*
X810034Y965824D01*
X810071Y965769D01*
X810108Y965676D01*
X810163Y965556D01*
X810210Y965418D01*
X810256Y965251D01*
X810283Y965076D01*
X810293Y964881D01*
Y964872D01*
Y964854D01*
Y964817D01*
X810283Y964770D01*
Y964706D01*
X810274Y964641D01*
X810237Y964484D01*
X810182Y964299D01*
X810108Y964105D01*
X809997Y963911D01*
X809923Y963818D01*
X809849Y963726D01*
X809840Y963716D01*
X809830Y963707D01*
X809803Y963679D01*
X809766Y963652D01*
X809719Y963615D01*
X809664Y963578D01*
X809590Y963531D01*
X809516Y963476D01*
X809424Y963430D01*
X809322Y963384D01*
X809211Y963328D01*
X809091Y963282D01*
X808952Y963245D01*
X808813Y963199D01*
X808656Y963171D01*
X808490Y963143D01*
X808508Y963134D01*
X808545Y963115D01*
X808601Y963079D01*
X808675Y963042D01*
X808841Y962940D01*
X808924Y962875D01*
X808998Y962820D01*
X809017Y962801D01*
X809063Y962755D01*
X809137Y962681D01*
X809229Y962588D01*
X809331Y962459D01*
X809451Y962320D01*
X809572Y962154D01*
X809701Y961969D01*
X810801Y960231D01*
X809747D01*
X808906Y961562D01*
Y961571D01*
X808887Y961590D01*
X808869Y961618D01*
X808841Y961655D01*
X808776Y961756D01*
X808693Y961886D01*
X808592Y962025D01*
X808490Y962172D01*
X808388Y962311D01*
X808296Y962440D01*
X808286Y962450D01*
X808259Y962487D01*
X808212Y962542D01*
X808148Y962607D01*
X808009Y962746D01*
X807935Y962810D01*
X807861Y962866D01*
X807852Y962875D01*
X807833Y962884D01*
X807796Y962903D01*
X807741Y962931D01*
X807685Y962958D01*
X807621Y962986D01*
X807473Y963032D01*
X807464D01*
X807445Y963042D01*
X807408D01*
X807362Y963051D01*
X807297Y963060D01*
X807223D01*
X807121Y963069D01*
X806031D01*
Y960231D01*
X805180D01*
Y966629D01*
X808148D01*
X808222Y966619D01*
D02*
G37*
G36*
X824947Y966647D02*
X825021Y966638D01*
X825104Y966629D01*
X825197Y966619D01*
X825289Y966592D01*
X825511Y966536D01*
X825733Y966453D01*
X825844Y966398D01*
X825955Y966333D01*
X826056Y966250D01*
X826158Y966167D01*
X826167Y966157D01*
X826177Y966148D01*
X826204Y966120D01*
X826241Y966083D01*
X826278Y966028D01*
X826325Y965972D01*
X826417Y965834D01*
X826509Y965658D01*
X826593Y965455D01*
X826657Y965223D01*
X826667Y965103D01*
X826676Y964974D01*
Y964965D01*
Y964955D01*
Y964900D01*
X826667Y964817D01*
X826648Y964715D01*
X826620Y964585D01*
X826574Y964456D01*
X826519Y964327D01*
X826435Y964197D01*
X826426Y964179D01*
X826389Y964142D01*
X826334Y964086D01*
X826260Y964012D01*
X826158Y963929D01*
X826038Y963846D01*
X825899Y963763D01*
X825733Y963689D01*
X825742D01*
X825761Y963679D01*
X825788Y963670D01*
X825825Y963652D01*
X825936Y963605D01*
X826066Y963541D01*
X826204Y963448D01*
X826352Y963347D01*
X826491Y963217D01*
X826620Y963069D01*
Y963060D01*
X826630Y963051D01*
X826667Y962995D01*
X826722Y962903D01*
X826778Y962783D01*
X826833Y962635D01*
X826889Y962459D01*
X826926Y962265D01*
X826935Y962052D01*
Y962043D01*
Y962015D01*
Y961969D01*
X826926Y961914D01*
X826916Y961849D01*
X826907Y961766D01*
X826889Y961673D01*
X826861Y961571D01*
X826796Y961359D01*
X826750Y961239D01*
X826685Y961128D01*
X826620Y961008D01*
X826546Y960897D01*
X826454Y960786D01*
X826352Y960675D01*
X826343Y960665D01*
X826325Y960647D01*
X826297Y960619D01*
X826251Y960591D01*
X826186Y960545D01*
X826121Y960499D01*
X826038Y960453D01*
X825946Y960397D01*
X825844Y960342D01*
X825724Y960295D01*
X825594Y960249D01*
X825465Y960203D01*
X825317Y960175D01*
X825160Y960148D01*
X825002Y960129D01*
X824827Y960120D01*
X824734D01*
X824670Y960129D01*
X824586Y960138D01*
X824494Y960148D01*
X824392Y960166D01*
X824281Y960194D01*
X824032Y960259D01*
X823902Y960305D01*
X823782Y960351D01*
X823653Y960416D01*
X823523Y960490D01*
X823403Y960573D01*
X823292Y960675D01*
X823283Y960684D01*
X823264Y960702D01*
X823236Y960730D01*
X823199Y960776D01*
X823163Y960832D01*
X823107Y960897D01*
X823061Y960971D01*
X823005Y961063D01*
X822950Y961155D01*
X822904Y961266D01*
X822811Y961497D01*
X822774Y961636D01*
X822747Y961775D01*
X822728Y961923D01*
X822719Y962071D01*
Y962080D01*
Y962098D01*
Y962135D01*
X822728Y962172D01*
Y962228D01*
X822737Y962293D01*
X822756Y962440D01*
X822793Y962607D01*
X822848Y962773D01*
X822931Y962949D01*
X823033Y963115D01*
Y963125D01*
X823052Y963134D01*
X823089Y963180D01*
X823163Y963254D01*
X823264Y963347D01*
X823394Y963439D01*
X823551Y963541D01*
X823727Y963624D01*
X823939Y963689D01*
X823930D01*
X823921Y963698D01*
X823893Y963707D01*
X823856Y963726D01*
X823773Y963763D01*
X823662Y963818D01*
X823542Y963892D01*
X823421Y963985D01*
X823310Y964086D01*
X823209Y964197D01*
X823199Y964216D01*
X823172Y964253D01*
X823135Y964327D01*
X823098Y964419D01*
X823052Y964539D01*
X823015Y964678D01*
X822987Y964835D01*
X822978Y965002D01*
Y965011D01*
Y965029D01*
Y965066D01*
X822987Y965122D01*
X822996Y965177D01*
X823005Y965251D01*
X823042Y965408D01*
X823098Y965593D01*
X823190Y965787D01*
X823246Y965889D01*
X823310Y965991D01*
X823394Y966083D01*
X823477Y966176D01*
X823486Y966185D01*
X823505Y966194D01*
X823532Y966222D01*
X823569Y966250D01*
X823616Y966287D01*
X823680Y966324D01*
X823754Y966370D01*
X823828Y966416D01*
X823921Y966462D01*
X824022Y966509D01*
X824133Y966546D01*
X824253Y966582D01*
X824512Y966638D01*
X824660Y966647D01*
X824808Y966656D01*
X824892D01*
X824947Y966647D01*
D02*
G37*
G36*
X752868Y962931D02*
Y962921D01*
Y962884D01*
Y962838D01*
Y962773D01*
X752859Y962690D01*
Y962598D01*
X752850Y962487D01*
X752841Y962376D01*
X752813Y962126D01*
X752776Y961867D01*
X752721Y961618D01*
X752684Y961497D01*
X752647Y961386D01*
Y961377D01*
X752637Y961359D01*
X752619Y961331D01*
X752600Y961294D01*
X752545Y961192D01*
X752462Y961063D01*
X752351Y960915D01*
X752221Y960767D01*
X752055Y960610D01*
X751852Y960471D01*
X751842D01*
X751824Y960453D01*
X751796Y960443D01*
X751750Y960416D01*
X751694Y960388D01*
X751620Y960360D01*
X751546Y960332D01*
X751454Y960295D01*
X751352Y960259D01*
X751241Y960231D01*
X751121Y960203D01*
X750982Y960175D01*
X750844Y960157D01*
X750696Y960138D01*
X750363Y960120D01*
X750280D01*
X750215Y960129D01*
X750141D01*
X750049Y960138D01*
X749947Y960148D01*
X749845Y960157D01*
X749614Y960194D01*
X749364Y960249D01*
X749124Y960323D01*
X748893Y960425D01*
X748884D01*
X748865Y960443D01*
X748837Y960462D01*
X748801Y960480D01*
X748699Y960554D01*
X748579Y960656D01*
X748440Y960786D01*
X748310Y960934D01*
X748181Y961118D01*
X748079Y961322D01*
Y961331D01*
X748070Y961349D01*
X748061Y961386D01*
X748042Y961433D01*
X748024Y961488D01*
X748005Y961562D01*
X747978Y961645D01*
X747959Y961747D01*
X747941Y961858D01*
X747913Y961978D01*
X747894Y962108D01*
X747876Y962246D01*
X747857Y962403D01*
X747848Y962570D01*
X747839Y962746D01*
Y962931D01*
Y966629D01*
X748689D01*
Y962931D01*
Y962921D01*
Y962894D01*
Y962847D01*
Y962792D01*
X748699Y962727D01*
Y962644D01*
X748708Y962468D01*
X748727Y962265D01*
X748754Y962061D01*
X748791Y961867D01*
X748810Y961784D01*
X748837Y961701D01*
X748847Y961682D01*
X748865Y961636D01*
X748911Y961571D01*
X748967Y961479D01*
X749032Y961386D01*
X749124Y961285D01*
X749235Y961183D01*
X749364Y961100D01*
X749383Y961091D01*
X749429Y961063D01*
X749512Y961035D01*
X749623Y960998D01*
X749753Y960952D01*
X749919Y960924D01*
X750095Y960897D01*
X750289Y960887D01*
X750381D01*
X750437Y960897D01*
X750520D01*
X750603Y960906D01*
X750807Y960943D01*
X751029Y960989D01*
X751241Y961063D01*
X751445Y961165D01*
X751537Y961229D01*
X751620Y961303D01*
X751630Y961313D01*
X751639Y961322D01*
X751657Y961349D01*
X751685Y961386D01*
X751713Y961442D01*
X751750Y961497D01*
X751787Y961581D01*
X751824Y961664D01*
X751861Y961766D01*
X751889Y961886D01*
X751926Y962025D01*
X751953Y962172D01*
X751981Y962339D01*
X751999Y962514D01*
X752018Y962718D01*
Y962931D01*
Y966629D01*
X752868D01*
Y962931D01*
D02*
G37*
G36*
X761892Y960231D02*
X761106D01*
Y965233D01*
X761097Y965223D01*
X761051Y965186D01*
X760995Y965131D01*
X760903Y965066D01*
X760801Y964983D01*
X760672Y964891D01*
X760524Y964789D01*
X760358Y964687D01*
X760348D01*
X760339Y964678D01*
X760284Y964641D01*
X760191Y964595D01*
X760080Y964539D01*
X759951Y964475D01*
X759812Y964410D01*
X759673Y964345D01*
X759535Y964290D01*
Y965048D01*
X759544D01*
X759562Y965066D01*
X759599Y965076D01*
X759645Y965103D01*
X759701Y965131D01*
X759766Y965168D01*
X759923Y965260D01*
X760108Y965362D01*
X760293Y965492D01*
X760487Y965639D01*
X760681Y965797D01*
X760690Y965806D01*
X760699Y965815D01*
X760727Y965843D01*
X760764Y965871D01*
X760847Y965963D01*
X760958Y966074D01*
X761069Y966204D01*
X761190Y966351D01*
X761291Y966499D01*
X761384Y966656D01*
X761892D01*
Y960231D01*
D02*
G37*
G36*
X756918D02*
X756132D01*
Y965233D01*
X756123Y965223D01*
X756077Y965186D01*
X756021Y965131D01*
X755929Y965066D01*
X755827Y964983D01*
X755698Y964891D01*
X755550Y964789D01*
X755383Y964687D01*
X755374D01*
X755365Y964678D01*
X755309Y964641D01*
X755217Y964595D01*
X755106Y964539D01*
X754977Y964475D01*
X754838Y964410D01*
X754699Y964345D01*
X754560Y964290D01*
Y965048D01*
X754570D01*
X754588Y965066D01*
X754625Y965076D01*
X754671Y965103D01*
X754727Y965131D01*
X754792Y965168D01*
X754949Y965260D01*
X755134Y965362D01*
X755319Y965492D01*
X755513Y965639D01*
X755707Y965797D01*
X755716Y965806D01*
X755725Y965815D01*
X755753Y965843D01*
X755790Y965871D01*
X755873Y965963D01*
X755984Y966074D01*
X756095Y966204D01*
X756215Y966351D01*
X756317Y966499D01*
X756410Y966656D01*
X756918D01*
Y960231D01*
D02*
G37*
G36*
X744427Y966619D02*
X744510D01*
X744705Y966610D01*
X744908Y966582D01*
X745130Y966555D01*
X745333Y966509D01*
X745435Y966481D01*
X745518Y966453D01*
X745527D01*
X745537Y966444D01*
X745592Y966416D01*
X745675Y966379D01*
X745777Y966314D01*
X745888Y966231D01*
X746008Y966120D01*
X746119Y965991D01*
X746230Y965843D01*
Y965834D01*
X746239Y965824D01*
X746276Y965769D01*
X746313Y965676D01*
X746369Y965556D01*
X746415Y965418D01*
X746461Y965251D01*
X746489Y965076D01*
X746498Y964881D01*
Y964872D01*
Y964854D01*
Y964817D01*
X746489Y964770D01*
Y964706D01*
X746480Y964641D01*
X746443Y964484D01*
X746387Y964299D01*
X746313Y964105D01*
X746202Y963911D01*
X746128Y963818D01*
X746055Y963726D01*
X746045Y963716D01*
X746036Y963707D01*
X746008Y963679D01*
X745971Y963652D01*
X745925Y963615D01*
X745870Y963578D01*
X745796Y963531D01*
X745722Y963476D01*
X745629Y963430D01*
X745527Y963384D01*
X745417Y963328D01*
X745296Y963282D01*
X745158Y963245D01*
X745019Y963199D01*
X744862Y963171D01*
X744695Y963143D01*
X744714Y963134D01*
X744751Y963115D01*
X744806Y963079D01*
X744880Y963042D01*
X745047Y962940D01*
X745130Y962875D01*
X745204Y962820D01*
X745222Y962801D01*
X745269Y962755D01*
X745343Y962681D01*
X745435Y962588D01*
X745537Y962459D01*
X745657Y962320D01*
X745777Y962154D01*
X745907Y961969D01*
X747007Y960231D01*
X745953D01*
X745111Y961562D01*
Y961571D01*
X745093Y961590D01*
X745074Y961618D01*
X745047Y961655D01*
X744982Y961756D01*
X744899Y961886D01*
X744797Y962025D01*
X744695Y962172D01*
X744594Y962311D01*
X744501Y962440D01*
X744492Y962450D01*
X744464Y962487D01*
X744418Y962542D01*
X744353Y962607D01*
X744215Y962746D01*
X744141Y962810D01*
X744067Y962866D01*
X744057Y962875D01*
X744039Y962884D01*
X744002Y962903D01*
X743947Y962931D01*
X743891Y962958D01*
X743826Y962986D01*
X743678Y963032D01*
X743669D01*
X743651Y963042D01*
X743614D01*
X743567Y963051D01*
X743503Y963060D01*
X743429D01*
X743327Y963069D01*
X742236D01*
Y960231D01*
X741385D01*
Y966629D01*
X744353D01*
X744427Y966619D01*
D02*
G37*
G36*
X377365Y822193D02*
X377355D01*
X377337D01*
X377300D01*
X377244Y822184D01*
X377189Y822174D01*
X377124D01*
X376967Y822147D01*
X376801Y822119D01*
X376634Y822063D01*
X376486Y822008D01*
X376422Y821971D01*
X376366Y821925D01*
X376357Y821915D01*
X376329Y821878D01*
X376283Y821823D01*
X376237Y821749D01*
X376181Y821647D01*
X376144Y821536D01*
X376107Y821398D01*
X376098Y821250D01*
Y821194D01*
X376107Y821139D01*
X376116Y821056D01*
X376135Y820972D01*
X376153Y820880D01*
X376190Y820787D01*
X376237Y820695D01*
X376246Y820686D01*
X376264Y820658D01*
X376301Y820621D01*
X376338Y820565D01*
X376403Y820519D01*
X376468Y820464D01*
X376542Y820418D01*
X376634Y820381D01*
X376643D01*
X376680Y820362D01*
X376745Y820353D01*
X376828Y820334D01*
X376939Y820316D01*
X377078Y820307D01*
X377244Y820288D01*
X377439D01*
X381849D01*
Y819437D01*
X377485D01*
X377476D01*
X377448D01*
X377411D01*
X377355D01*
X377281Y819447D01*
X377207D01*
X377032Y819465D01*
X376828Y819484D01*
X376616Y819521D01*
X376422Y819576D01*
X376237Y819641D01*
X376227D01*
X376218Y819650D01*
X376163Y819678D01*
X376089Y819724D01*
X375987Y819789D01*
X375885Y819881D01*
X375774Y819983D01*
X375663Y820113D01*
X375571Y820260D01*
X375562Y820279D01*
X375534Y820334D01*
X375497Y820418D01*
X375460Y820538D01*
X375414Y820686D01*
X375377Y820852D01*
X375349Y821037D01*
X375340Y821240D01*
Y821324D01*
X375349Y821379D01*
X375358Y821453D01*
X375368Y821527D01*
X375405Y821721D01*
X375460Y821925D01*
X375543Y822137D01*
X375599Y822248D01*
X375663Y822350D01*
X375737Y822442D01*
X375821Y822535D01*
X375830Y822544D01*
X375839Y822553D01*
X375876Y822572D01*
X375913Y822599D01*
X375959Y822636D01*
X376024Y822673D01*
X376098Y822710D01*
X376181Y822757D01*
X376274Y822794D01*
X376385Y822831D01*
X376496Y822868D01*
X376625Y822905D01*
X376764Y822923D01*
X376921Y822951D01*
X377078Y822960D01*
X377254D01*
X377365Y822193D01*
D02*
G37*
G36*
X380268Y817764D02*
X380286Y817746D01*
X380295Y817709D01*
X380323Y817662D01*
X380351Y817607D01*
X380388Y817542D01*
X380480Y817385D01*
X380582Y817200D01*
X380712Y817015D01*
X380859Y816821D01*
X381017Y816627D01*
X381026Y816618D01*
X381035Y816608D01*
X381063Y816581D01*
X381091Y816544D01*
X381183Y816460D01*
X381294Y816349D01*
X381423Y816239D01*
X381571Y816118D01*
X381719Y816017D01*
X381876Y815924D01*
Y815416D01*
X375451D01*
Y816202D01*
X380453D01*
X380443Y816211D01*
X380406Y816257D01*
X380351Y816312D01*
X380286Y816405D01*
X380203Y816507D01*
X380111Y816636D01*
X380009Y816784D01*
X379907Y816951D01*
Y816960D01*
X379898Y816969D01*
X379861Y817024D01*
X379815Y817117D01*
X379759Y817228D01*
X379695Y817357D01*
X379630Y817496D01*
X379565Y817635D01*
X379510Y817773D01*
X380268D01*
Y817764D01*
D02*
G37*
G36*
X1013929Y807115D02*
X1013920D01*
X1013883D01*
X1013828D01*
X1013754Y807124D01*
X1013670Y807133D01*
X1013578Y807152D01*
X1013485Y807170D01*
X1013384Y807207D01*
X1013374D01*
X1013365Y807216D01*
X1013310Y807235D01*
X1013226Y807272D01*
X1013116Y807327D01*
X1012986Y807401D01*
X1012838Y807494D01*
X1012690Y807596D01*
X1012533Y807725D01*
X1012524D01*
X1012515Y807744D01*
X1012459Y807790D01*
X1012376Y807873D01*
X1012256Y807993D01*
X1012117Y808132D01*
X1011951Y808307D01*
X1011766Y808520D01*
X1011572Y808751D01*
X1011562Y808761D01*
X1011535Y808798D01*
X1011488Y808853D01*
X1011433Y808918D01*
X1011359Y809001D01*
X1011276Y809103D01*
X1011183Y809204D01*
X1011081Y809324D01*
X1010860Y809556D01*
X1010638Y809787D01*
X1010527Y809898D01*
X1010416Y809999D01*
X1010314Y810092D01*
X1010212Y810166D01*
X1010203D01*
X1010194Y810184D01*
X1010166Y810203D01*
X1010129Y810221D01*
X1010027Y810286D01*
X1009907Y810360D01*
X1009759Y810425D01*
X1009602Y810489D01*
X1009427Y810526D01*
X1009260Y810545D01*
X1009251D01*
X1009242D01*
X1009186Y810536D01*
X1009094Y810526D01*
X1008992Y810499D01*
X1008863Y810462D01*
X1008733Y810397D01*
X1008604Y810314D01*
X1008474Y810203D01*
X1008456Y810184D01*
X1008419Y810138D01*
X1008373Y810073D01*
X1008308Y809972D01*
X1008252Y809842D01*
X1008197Y809694D01*
X1008160Y809519D01*
X1008151Y809324D01*
Y809269D01*
X1008160Y809232D01*
X1008169Y809121D01*
X1008197Y808992D01*
X1008234Y808853D01*
X1008299Y808696D01*
X1008382Y808548D01*
X1008493Y808409D01*
X1008511Y808391D01*
X1008558Y808354D01*
X1008631Y808298D01*
X1008742Y808243D01*
X1008872Y808178D01*
X1009038Y808122D01*
X1009223Y808086D01*
X1009436Y808067D01*
X1009353Y807263D01*
X1009343D01*
X1009316Y807272D01*
X1009269D01*
X1009205Y807281D01*
X1009131Y807300D01*
X1009047Y807318D01*
X1008946Y807346D01*
X1008844Y807374D01*
X1008622Y807448D01*
X1008400Y807559D01*
X1008289Y807623D01*
X1008178Y807707D01*
X1008077Y807790D01*
X1007984Y807882D01*
X1007975Y807891D01*
X1007966Y807910D01*
X1007938Y807938D01*
X1007910Y807984D01*
X1007873Y808039D01*
X1007836Y808104D01*
X1007790Y808178D01*
X1007744Y808270D01*
X1007698Y808372D01*
X1007651Y808483D01*
X1007614Y808603D01*
X1007577Y808733D01*
X1007550Y808871D01*
X1007522Y809019D01*
X1007513Y809176D01*
X1007504Y809343D01*
Y809435D01*
X1007513Y809500D01*
X1007522Y809574D01*
X1007531Y809667D01*
X1007550Y809768D01*
X1007568Y809870D01*
X1007633Y810110D01*
X1007725Y810351D01*
X1007781Y810471D01*
X1007846Y810591D01*
X1007929Y810702D01*
X1008021Y810804D01*
X1008030Y810813D01*
X1008040Y810832D01*
X1008077Y810850D01*
X1008114Y810887D01*
X1008160Y810933D01*
X1008225Y810979D01*
X1008289Y811026D01*
X1008373Y811081D01*
X1008548Y811174D01*
X1008770Y811266D01*
X1008881Y811303D01*
X1009010Y811321D01*
X1009140Y811340D01*
X1009279Y811349D01*
X1009297D01*
X1009343D01*
X1009417Y811340D01*
X1009519Y811331D01*
X1009630Y811312D01*
X1009759Y811275D01*
X1009898Y811238D01*
X1010037Y811183D01*
X1010055Y811174D01*
X1010101Y811155D01*
X1010175Y811118D01*
X1010277Y811063D01*
X1010388Y810989D01*
X1010527Y810896D01*
X1010666Y810785D01*
X1010823Y810656D01*
X1010841Y810637D01*
X1010897Y810591D01*
X1010943Y810545D01*
X1010989Y810499D01*
X1011044Y810443D01*
X1011118Y810369D01*
X1011192Y810295D01*
X1011276Y810203D01*
X1011368Y810110D01*
X1011470Y809999D01*
X1011572Y809879D01*
X1011692Y809750D01*
X1011812Y809602D01*
X1011941Y809454D01*
X1011951Y809445D01*
X1011969Y809426D01*
X1011997Y809389D01*
X1012034Y809343D01*
X1012089Y809287D01*
X1012145Y809223D01*
X1012265Y809075D01*
X1012404Y808918D01*
X1012542Y808770D01*
X1012663Y808640D01*
X1012709Y808585D01*
X1012755Y808539D01*
X1012764Y808529D01*
X1012792Y808502D01*
X1012829Y808465D01*
X1012884Y808418D01*
X1012949Y808372D01*
X1013014Y808317D01*
X1013171Y808206D01*
Y811358D01*
X1013929D01*
Y807115D01*
D02*
G37*
G36*
X1012098Y806153D02*
X1012172D01*
X1012348Y806135D01*
X1012552Y806116D01*
X1012764Y806079D01*
X1012958Y806024D01*
X1013143Y805959D01*
X1013152D01*
X1013162Y805950D01*
X1013217Y805922D01*
X1013291Y805876D01*
X1013393Y805811D01*
X1013495Y805719D01*
X1013606Y805617D01*
X1013717Y805488D01*
X1013809Y805340D01*
X1013818Y805321D01*
X1013846Y805266D01*
X1013883Y805182D01*
X1013920Y805062D01*
X1013966Y804914D01*
X1014003Y804748D01*
X1014031Y804563D01*
X1014040Y804360D01*
Y804276D01*
X1014031Y804221D01*
X1014022Y804147D01*
X1014012Y804073D01*
X1013975Y803879D01*
X1013920Y803675D01*
X1013837Y803463D01*
X1013781Y803352D01*
X1013717Y803250D01*
X1013643Y803158D01*
X1013559Y803065D01*
X1013550Y803056D01*
X1013541Y803047D01*
X1013504Y803028D01*
X1013467Y803000D01*
X1013421Y802963D01*
X1013356Y802926D01*
X1013282Y802889D01*
X1013199Y802843D01*
X1013106Y802806D01*
X1012995Y802769D01*
X1012884Y802732D01*
X1012755Y802695D01*
X1012616Y802677D01*
X1012459Y802649D01*
X1012302Y802640D01*
X1012126D01*
X1012015Y803407D01*
X1012025D01*
X1012043D01*
X1012080D01*
X1012135Y803417D01*
X1012191Y803426D01*
X1012256D01*
X1012413Y803454D01*
X1012579Y803481D01*
X1012746Y803537D01*
X1012894Y803592D01*
X1012958Y803629D01*
X1013014Y803675D01*
X1013023Y803685D01*
X1013051Y803722D01*
X1013097Y803777D01*
X1013143Y803851D01*
X1013199Y803953D01*
X1013236Y804064D01*
X1013273Y804202D01*
X1013282Y804350D01*
Y804406D01*
X1013273Y804461D01*
X1013263Y804545D01*
X1013245Y804628D01*
X1013226Y804720D01*
X1013189Y804813D01*
X1013143Y804905D01*
X1013134Y804914D01*
X1013116Y804942D01*
X1013079Y804979D01*
X1013042Y805034D01*
X1012977Y805081D01*
X1012912Y805136D01*
X1012838Y805182D01*
X1012746Y805219D01*
X1012737D01*
X1012700Y805238D01*
X1012635Y805247D01*
X1012552Y805266D01*
X1012441Y805284D01*
X1012302Y805293D01*
X1012135Y805312D01*
X1011941D01*
X1007531D01*
Y806162D01*
X1011895D01*
X1011904D01*
X1011932D01*
X1011969D01*
X1012025D01*
X1012098Y806153D01*
D02*
G37*
%LPC*%
G36*
X808046Y965917D02*
X806031D01*
Y963800D01*
X807935D01*
X808046Y963809D01*
X808175Y963818D01*
X808323Y963827D01*
X808471Y963846D01*
X808619Y963874D01*
X808749Y963911D01*
X808767Y963920D01*
X808804Y963938D01*
X808860Y963966D01*
X808934Y964003D01*
X809017Y964059D01*
X809100Y964123D01*
X809183Y964206D01*
X809248Y964299D01*
X809257Y964308D01*
X809276Y964345D01*
X809303Y964401D01*
X809340Y964475D01*
X809368Y964558D01*
X809396Y964650D01*
X809414Y964761D01*
X809424Y964872D01*
Y964881D01*
Y964891D01*
X809414Y964946D01*
X809405Y965029D01*
X809387Y965140D01*
X809340Y965251D01*
X809285Y965381D01*
X809202Y965501D01*
X809091Y965621D01*
X809072Y965630D01*
X809026Y965667D01*
X808952Y965714D01*
X808832Y965769D01*
X808693Y965824D01*
X808508Y965871D01*
X808296Y965908D01*
X808046Y965917D01*
D02*
G37*
G36*
X824827Y966009D02*
X824753D01*
X824670Y965991D01*
X824559Y965972D01*
X824438Y965935D01*
X824309Y965889D01*
X824189Y965815D01*
X824069Y965714D01*
X824059Y965704D01*
X824022Y965667D01*
X823976Y965602D01*
X823930Y965519D01*
X823875Y965418D01*
X823828Y965297D01*
X823791Y965168D01*
X823782Y965020D01*
Y965011D01*
Y965002D01*
X823791Y964946D01*
X823801Y964863D01*
X823819Y964761D01*
X823856Y964641D01*
X823902Y964521D01*
X823976Y964391D01*
X824069Y964280D01*
X824078Y964271D01*
X824124Y964234D01*
X824189Y964188D01*
X824272Y964142D01*
X824383Y964086D01*
X824512Y964040D01*
X824660Y964003D01*
X824827Y963994D01*
X824845D01*
X824901Y964003D01*
X824984Y964012D01*
X825095Y964031D01*
X825215Y964068D01*
X825335Y964114D01*
X825465Y964188D01*
X825576Y964280D01*
X825585Y964290D01*
X825622Y964336D01*
X825668Y964391D01*
X825724Y964475D01*
X825779Y964576D01*
X825825Y964696D01*
X825862Y964835D01*
X825872Y964983D01*
Y964992D01*
Y965002D01*
Y965057D01*
X825853Y965140D01*
X825835Y965242D01*
X825798Y965353D01*
X825742Y965473D01*
X825668Y965593D01*
X825566Y965714D01*
X825557Y965723D01*
X825511Y965760D01*
X825446Y965806D01*
X825363Y965861D01*
X825252Y965917D01*
X825132Y965963D01*
X824984Y966000D01*
X824827Y966009D01*
D02*
G37*
G36*
X824799Y963356D02*
X824744D01*
X824707Y963347D01*
X824605Y963337D01*
X824475Y963310D01*
X824327Y963263D01*
X824180Y963199D01*
X824022Y963106D01*
X823884Y962986D01*
X823865Y962968D01*
X823828Y962921D01*
X823773Y962838D01*
X823708Y962736D01*
X823634Y962598D01*
X823579Y962440D01*
X823542Y962265D01*
X823523Y962071D01*
Y962052D01*
Y962015D01*
X823532Y961951D01*
X823542Y961867D01*
X823560Y961766D01*
X823588Y961655D01*
X823625Y961544D01*
X823671Y961423D01*
X823680Y961414D01*
X823699Y961368D01*
X823736Y961313D01*
X823791Y961248D01*
X823856Y961165D01*
X823939Y961081D01*
X824032Y961008D01*
X824143Y960934D01*
X824161Y960924D01*
X824198Y960906D01*
X824263Y960878D01*
X824346Y960850D01*
X824448Y960823D01*
X824568Y960795D01*
X824697Y960776D01*
X824827Y960767D01*
X824882D01*
X824919Y960776D01*
X825030Y960786D01*
X825160Y960813D01*
X825307Y960860D01*
X825465Y960915D01*
X825613Y961008D01*
X825761Y961128D01*
X825779Y961146D01*
X825816Y961192D01*
X825881Y961276D01*
X825946Y961377D01*
X826010Y961507D01*
X826075Y961664D01*
X826112Y961849D01*
X826130Y962043D01*
Y962052D01*
Y962071D01*
Y962098D01*
X826121Y962135D01*
X826112Y962237D01*
X826084Y962376D01*
X826038Y962514D01*
X825973Y962672D01*
X825881Y962829D01*
X825751Y962977D01*
X825733Y962995D01*
X825687Y963032D01*
X825603Y963097D01*
X825492Y963171D01*
X825354Y963236D01*
X825187Y963300D01*
X825002Y963337D01*
X824799Y963356D01*
D02*
G37*
G36*
X744252Y965917D02*
X742236D01*
Y963800D01*
X744141D01*
X744252Y963809D01*
X744381Y963818D01*
X744529Y963827D01*
X744677Y963846D01*
X744825Y963874D01*
X744954Y963911D01*
X744973Y963920D01*
X745010Y963938D01*
X745065Y963966D01*
X745139Y964003D01*
X745222Y964059D01*
X745306Y964123D01*
X745389Y964206D01*
X745454Y964299D01*
X745463Y964308D01*
X745481Y964345D01*
X745509Y964401D01*
X745546Y964475D01*
X745574Y964558D01*
X745602Y964650D01*
X745620Y964761D01*
X745629Y964872D01*
Y964881D01*
Y964891D01*
X745620Y964946D01*
X745611Y965029D01*
X745592Y965140D01*
X745546Y965251D01*
X745490Y965381D01*
X745407Y965501D01*
X745296Y965621D01*
X745278Y965630D01*
X745232Y965667D01*
X745158Y965714D01*
X745038Y965769D01*
X744899Y965824D01*
X744714Y965871D01*
X744501Y965908D01*
X744252Y965917D01*
D02*
G37*
%LPD*%
D12*
X594640Y672740D02*
Y754740D01*
X502640D02*
X594640D01*
X502640Y672740D02*
Y754740D01*
Y672740D02*
X594640D01*
X768109Y658270D02*
Y677770D01*
Y658270D02*
X806691D01*
Y677770D01*
X768109D02*
X806691D01*
X794818Y954758D02*
Y965482D01*
Y954758D02*
X815542D01*
Y965482D01*
X794818D02*
X815542D01*
X731023Y954758D02*
Y965482D01*
Y954758D02*
X751748D01*
Y965482D01*
X731023D02*
X751748D01*
X346590Y847960D02*
X404090D01*
X346590Y797960D02*
Y847960D01*
Y797960D02*
X404090D01*
Y847960D01*
X985290Y777640D02*
X1042790D01*
Y827640D01*
X985290D02*
X1042790D01*
X985290Y777640D02*
Y827640D01*
M02*
