G04*
G04 #@! TF.GenerationSoftware,Altium Limited,Altium Designer,24.9.1 (31)*
G04*
G04 Layer_Color=16711935*
%FSLAX44Y44*%
%MOMM*%
G71*
G04*
G04 #@! TF.SameCoordinates,B653029B-541F-4617-83FB-ACABD9EDAD60*
G04*
G04*
G04 #@! TF.FilePolarity,Positive*
G04*
G01*
G75*
%ADD34C,0.1000*%
D34*
X786480Y897380D02*
G03*
X786480Y897380I-5000J0D01*
G01*
X568200Y805760D02*
Y814760D01*
X585200Y805760D02*
Y814760D01*
X568200D02*
X585200D01*
X568200Y805760D02*
X585200D01*
X461400D02*
Y814760D01*
X478400Y805760D02*
Y814760D01*
X461400D02*
X478400D01*
X461400Y805760D02*
X478400D01*
X742820Y772940D02*
Y806940D01*
X694820Y772940D02*
Y806940D01*
Y772940D02*
X742820D01*
X694820Y806940D02*
X742820D01*
X868340Y808590D02*
X889340D01*
X868340Y822090D02*
X889340D01*
Y808590D02*
Y822090D01*
X868340Y808590D02*
Y822090D01*
X927880Y771020D02*
X961880D01*
X927880Y819020D02*
X961880D01*
X927880Y771020D02*
Y819020D01*
X961880Y771020D02*
Y819020D01*
X813940Y699280D02*
Y733280D01*
X765940Y699280D02*
Y733280D01*
Y699280D02*
X813940D01*
X765940Y733280D02*
X813940D01*
X664980Y933050D02*
X685980D01*
X664980Y946550D02*
X685980D01*
Y933050D02*
Y946550D01*
X664980Y933050D02*
Y946550D01*
X496700Y869460D02*
Y903460D01*
X544700Y869460D02*
Y903460D01*
X496700D02*
X544700D01*
X496700Y869460D02*
X544700D01*
X870880Y883050D02*
X891880D01*
X870880Y869550D02*
X891880D01*
X870880D02*
Y883050D01*
X891880Y869550D02*
Y883050D01*
X772480Y856380D02*
X812480D01*
X772480Y906380D02*
X812480D01*
Y856380D02*
Y906380D01*
X772480Y856380D02*
Y906380D01*
M02*
