G04*
G04 #@! TF.GenerationSoftware,Altium Limited,Altium Designer,24.9.1 (31)*
G04*
G04 Layer_Physical_Order=1*
G04 Layer_Color=255*
%FSLAX44Y44*%
%MOMM*%
G71*
G04*
G04 #@! TF.SameCoordinates,7E7E1321-1AF4-471A-A2C5-3CFE501CF5BA*
G04*
G04*
G04 #@! TF.FilePolarity,Positive*
G04*
G01*
G75*
%ADD13C,0.2540*%
%ADD14R,1.2000X2.5000*%
%ADD15R,0.8000X1.0000*%
%ADD16R,1.4000X3.4000*%
%ADD17R,1.2000X1.4500*%
%ADD18R,3.4000X1.4000*%
%ADD19R,1.1057X1.6582*%
%ADD20R,0.7154X0.6725*%
%ADD21R,1.5500X0.6000*%
%ADD22R,1.8000X1.2000*%
G04:AMPARAMS|DCode=23|XSize=0.6mm|YSize=1.45mm|CornerRadius=0.051mm|HoleSize=0mm|Usage=FLASHONLY|Rotation=90.000|XOffset=0mm|YOffset=0mm|HoleType=Round|Shape=RoundedRectangle|*
%AMROUNDEDRECTD23*
21,1,0.6000,1.3480,0,0,90.0*
21,1,0.4980,1.4500,0,0,90.0*
1,1,0.1020,0.6740,0.2490*
1,1,0.1020,0.6740,-0.2490*
1,1,0.1020,-0.6740,-0.2490*
1,1,0.1020,-0.6740,0.2490*
%
%ADD23ROUNDEDRECTD23*%
%ADD31C,1.5240*%
%ADD32C,1.2700*%
D13*
X800162Y670782D02*
X810440Y681060D01*
Y716280D01*
X800162Y668020D02*
Y670782D01*
X788090Y748630D02*
Y774210D01*
X810440Y716280D02*
Y726280D01*
X788090Y748630D02*
X810440Y726280D01*
X769440Y675980D02*
X774638Y670782D01*
Y668020D02*
Y670782D01*
X769440Y675980D02*
Y716280D01*
X899160Y647700D02*
X944880Y693420D01*
Y774520D01*
X453608Y647700D02*
X899160D01*
X452120Y649188D02*
X453608Y647700D01*
X395340Y707020D02*
Y798460D01*
Y707020D02*
X452120Y650240D01*
Y649188D02*
Y650240D01*
X523640Y734740D02*
X528370Y730010D01*
X523640Y734740D02*
Y741240D01*
X528370Y730010D02*
X537778D01*
X551508Y716280D01*
X769440D01*
X659620Y741240D02*
X698320Y779940D01*
Y789940D01*
X573640Y741240D02*
X659620D01*
X548640Y788700D02*
X569200Y809260D01*
X548640Y741240D02*
Y788700D01*
X569200Y809260D02*
Y810260D01*
X454660Y660400D02*
X547152D01*
X548640Y661888D02*
Y686240D01*
X547152Y660400D02*
X548640Y661888D01*
X408940Y706120D02*
Y784860D01*
Y706120D02*
X454660Y660400D01*
X821000Y876300D02*
X871380D01*
X395340Y798460D02*
Y817960D01*
Y798460D02*
X408940Y784860D01*
X845820Y922020D02*
X853440Y929640D01*
X845820Y901700D02*
Y922020D01*
X819730Y887730D02*
X831850D01*
X845820Y901700D01*
X830790Y900858D02*
X833120Y903188D01*
X820158Y900858D02*
X830790D01*
X815480Y900430D02*
X819730D01*
X820158Y900858D01*
X833120Y903188D02*
Y914400D01*
X717550Y862330D02*
X765230D01*
X819730Y875030D02*
X823980D01*
X868840Y830170D01*
X819730Y875030D02*
X821000Y876300D01*
X864110Y810610D02*
X868840Y815340D01*
X862622Y805670D02*
X864110Y807158D01*
X745050Y805670D02*
X862622D01*
X864110Y807158D02*
Y810610D01*
X868840Y815340D02*
Y830170D01*
X372328Y817960D02*
X395340D01*
X370840Y819448D02*
X372328Y817960D01*
X370840Y819448D02*
Y853440D01*
X388130Y870730D02*
X494470D01*
X370840Y853440D02*
X388130Y870730D01*
X500200Y876460D02*
Y886460D01*
X494470Y870730D02*
X500200Y876460D01*
Y896460D02*
X505930Y902190D01*
X527542D01*
X500200Y886460D02*
Y896460D01*
X527542Y902190D02*
X565152Y939800D01*
X665480D01*
X606830Y881610D02*
X614680Y873760D01*
X601980Y886460D02*
X606830Y881610D01*
X760980Y875030D02*
X765230D01*
X754400Y881610D02*
X760980Y875030D01*
X606830Y881610D02*
X754400D01*
X601980Y810260D02*
X614680Y822960D01*
Y873760D01*
X584200Y810260D02*
X601980D01*
X541200Y886460D02*
X601980D01*
X477400Y810260D02*
X569200D01*
X431640D02*
X462400D01*
X413940Y827960D02*
X431640Y810260D01*
X800487Y960120D02*
X802579Y962212D01*
Y965061D02*
X804811Y967292D01*
X800394Y960120D02*
X800487D01*
X802579Y962212D02*
Y965061D01*
X804811Y967292D02*
X864048D01*
X891380Y939960D01*
X809966Y937554D02*
X833120Y914400D01*
X809966Y937554D02*
Y960120D01*
X746171Y901918D02*
X747659Y900430D01*
X746171Y901918D02*
Y960120D01*
X747659Y900430D02*
X765230D01*
X684550Y960120D02*
X736386D01*
X736600D01*
X730032Y968792D02*
X731520Y970280D01*
X790020D01*
X730032Y966473D02*
X736386Y960120D01*
X730032Y966473D02*
Y968792D01*
X790020Y970280D02*
X800180Y960120D01*
X800394D01*
X665480Y939800D02*
Y941050D01*
X684550Y960120D01*
X993960Y807720D02*
X994040Y807640D01*
X972820Y809208D02*
Y850900D01*
X974308Y807720D02*
X993960D01*
X972820Y809208D02*
X974308Y807720D01*
X947420Y876300D02*
X972820Y850900D01*
X891380Y876300D02*
X947420D01*
X972760Y797640D02*
X994040D01*
X944880Y815520D02*
X954880D01*
X972760Y797640D01*
X944700Y815340D02*
X944880Y815520D01*
X888840Y815340D02*
X944700D01*
X745050Y774210D02*
X788090D01*
X739320Y779940D02*
Y789940D01*
Y779940D02*
X745050Y774210D01*
X739320Y799940D02*
X745050Y805670D01*
X739320Y789940D02*
Y799940D01*
X891380Y876300D02*
Y939960D01*
X763960Y889000D02*
X765230Y887730D01*
X735030Y889000D02*
X763960D01*
X685480Y938550D02*
X735030Y889000D01*
X685480Y938550D02*
Y939800D01*
X395340Y827960D02*
X413940D01*
X843280Y948689D02*
X848358D01*
X845819Y951228D02*
Y946150D01*
X850898Y952497D02*
Y947419D01*
X853437Y944880D01*
X855976Y947419D01*
Y952497D01*
X863593Y949958D02*
X859785D01*
X858515Y948689D01*
Y946150D01*
X859785Y944880D01*
X863593D01*
X871211Y949958D02*
X867402D01*
X866133Y948689D01*
Y946150D01*
X867402Y944880D01*
X871211D01*
X695960Y847089D02*
X701038D01*
X703577Y850898D02*
Y845819D01*
X706117Y843280D01*
X708656Y845819D01*
Y850898D01*
X716273Y848358D02*
X712465D01*
X711195Y847089D01*
Y844550D01*
X712465Y843280D01*
X716273D01*
X723891Y848358D02*
X720082D01*
X718813Y847089D01*
Y844550D01*
X720082Y843280D01*
X723891D01*
D14*
X548640Y686240D02*
D03*
Y741240D02*
D03*
X573640D02*
D03*
Y686240D02*
D03*
X523640D02*
D03*
Y741240D02*
D03*
D15*
X569200Y810260D02*
D03*
X584200D02*
D03*
X462400D02*
D03*
X477400D02*
D03*
D16*
X739320Y789940D02*
D03*
X698320D02*
D03*
X810440Y716280D02*
D03*
X769440D02*
D03*
X500200Y886460D02*
D03*
X541200D02*
D03*
D17*
X888840Y815340D02*
D03*
X868840D02*
D03*
X685480Y939800D02*
D03*
X665480D02*
D03*
X871380Y876300D02*
D03*
X891380D02*
D03*
D18*
X944880Y774520D02*
D03*
Y815520D02*
D03*
D19*
X800162Y668020D02*
D03*
X774638D02*
D03*
D20*
X809966Y960120D02*
D03*
X800394D02*
D03*
X746171D02*
D03*
X736600D02*
D03*
D21*
X395340Y817960D02*
D03*
Y827960D02*
D03*
X994040Y807640D02*
D03*
Y797640D02*
D03*
D22*
X356590Y804960D02*
D03*
Y840960D02*
D03*
X1032790Y820640D02*
D03*
Y784640D02*
D03*
D23*
X819730Y862330D02*
D03*
Y875030D02*
D03*
Y887730D02*
D03*
Y900430D02*
D03*
X765230Y862330D02*
D03*
Y875030D02*
D03*
Y887730D02*
D03*
Y900430D02*
D03*
D31*
X855980Y932180D02*
D03*
X713740Y863600D02*
D03*
D32*
X408940Y784860D02*
D03*
M02*
